<svg width="64" height="64" viewBox="0 0 64 64" fill="none" xmlns="http://www.w3.org/2000/svg">
<circle opacity="0.1" cx="32" cy="32" r="32" fill="#27AE60"/>
<path d="M34.6668 35.0027V37.7893C33.4601 37.3627 32.1685 37.2318 30.9007 37.4077C29.6329 37.5836 28.4258 38.0612 27.3807 38.8003C26.3357 39.5394 25.4833 40.5184 24.895 41.6552C24.3068 42.792 23.9999 44.0534 24.0002 45.3333L21.3335 45.332C21.3331 43.7039 21.7054 42.0972 22.4219 40.6352C23.1384 39.1732 24.1801 37.8946 25.4671 36.8974C26.7542 35.9002 28.2524 35.2108 29.847 34.8822C31.4417 34.5535 33.0904 34.5943 34.6668 35.0013V35.0027ZM32.0002 33.3333C27.5802 33.3333 24.0002 29.7533 24.0002 25.3333C24.0002 20.9133 27.5802 17.3333 32.0002 17.3333C36.4202 17.3333 40.0002 20.9133 40.0002 25.3333C40.0002 29.7533 36.4202 33.3333 32.0002 33.3333ZM32.0002 30.6667C34.9468 30.6667 37.3335 28.28 37.3335 25.3333C37.3335 22.3867 34.9468 20 32.0002 20C29.0535 20 26.6668 22.3867 26.6668 25.3333C26.6668 28.28 29.0535 30.6667 32.0002 30.6667ZM40.0002 38.6667V34.6667H42.6668V38.6667H46.6668V41.3333H42.6668V45.3333H40.0002V41.3333H36.0002V38.6667H40.0002Z" fill="#27AE60"/>
</svg>
