<svg width="34" height="34" viewBox="0 0 34 34" fill="none" xmlns="http://www.w3.org/2000/svg">
<g clip-path="url(#clip0)">
<path d="M7.24193 16.5759L16.1515 25.4855C18.731 28.065 22.91 28.0607 25.4852 25.4855C28.0605 22.9102 28.0648 18.7312 25.4852 16.1517L17.4242 8.09066L16.1514 9.36345L24.2125 17.4245C26.0877 19.2997 26.0877 22.3374 24.2125 24.2127C22.3372 26.0879 19.2995 26.0879 17.4243 24.2127L8.51472 15.3031C7.34376 14.1322 7.34376 12.2315 8.51472 11.0605C9.68569 9.88955 11.5864 9.88955 12.7573 11.0605L19.9698 18.273C20.4365 18.7397 20.4407 19.4991 19.9698 19.97C19.4989 20.4409 18.7395 20.4367 18.2728 19.97L11.9088 13.6061L10.636 14.8788L17 21.2428C18.171 22.4138 20.0716 22.4138 21.2426 21.2428C22.4136 20.0718 22.4136 18.1711 21.2426 17.0002L14.0302 9.78768C12.1549 7.91242 9.11719 7.91247 7.24197 9.78768C5.36675 11.6629 5.36667 14.7007 7.24193 16.5759Z" fill="#404040"/>
</g>
<defs>
<clipPath id="clip0">
<rect width="24" height="24" fill="white" transform="translate(17 33.9707) rotate(-135)"/>
</clipPath>
</defs>
</svg>
