<svg width="40" height="40" viewBox="0 0 40 40" fill="none" xmlns="http://www.w3.org/2000/svg">
<path d="M23.3334 23.7533V27.2367C21.8249 26.7033 20.2105 26.5398 18.6257 26.7597C17.0409 26.9795 15.532 27.5765 14.2257 28.5004C12.9195 29.4242 11.8539 30.648 11.1186 32.069C10.3833 33.49 9.99972 35.0667 10 36.6667L6.66669 36.665C6.66617 34.6298 7.13156 32.6215 8.02718 30.794C8.92281 28.9665 10.2249 27.3682 11.8337 26.1217C13.4425 24.8752 15.3153 24.0136 17.3086 23.6027C19.3019 23.1919 21.3628 23.2429 23.3334 23.7517V23.7533ZM20 21.6667C14.475 21.6667 10 17.1917 10 11.6667C10 6.14167 14.475 1.66667 20 1.66667C25.525 1.66667 30 6.14167 30 11.6667C30 17.1917 25.525 21.6667 20 21.6667ZM20 18.3333C23.6834 18.3333 26.6667 15.35 26.6667 11.6667C26.6667 7.98334 23.6834 5.00001 20 5.00001C16.3167 5.00001 13.3334 7.98334 13.3334 11.6667C13.3334 15.35 16.3167 18.3333 20 18.3333ZM31.6667 29.31L35.2017 25.7733L37.56 28.1317L34.0234 31.6667L37.56 35.2017L35.2017 37.56L31.6667 34.0233L28.1317 37.56L25.7734 35.2017L29.31 31.6667L25.7734 28.1317L28.1317 25.7733L31.6667 29.31Z" fill="#FF4500"/>
</svg>
