<svg width="16" height="16" viewBox="0 0 16 16" fill="none" xmlns="http://www.w3.org/2000/svg">
<path d="M11.3333 1.99999H14C14.1768 1.99999 14.3464 2.07023 14.4714 2.19525C14.5964 2.32028 14.6667 2.48985 14.6667 2.66666V13.3333C14.6667 13.5101 14.5964 13.6797 14.4714 13.8047C14.3464 13.9298 14.1768 14 14 14H2.00001C1.8232 14 1.65363 13.9298 1.52861 13.8047C1.40358 13.6797 1.33334 13.5101 1.33334 13.3333V2.66666C1.33334 2.48985 1.40358 2.32028 1.52861 2.19525C1.65363 2.07023 1.8232 1.99999 2.00001 1.99999H4.66668V0.666656H6.00001V1.99999H10V0.666656H11.3333V1.99999ZM10 3.33332H6.00001V4.66666H4.66668V3.33332H2.66668V5.99999H13.3333V3.33332H11.3333V4.66666H10V3.33332ZM13.3333 7.33332H2.66668V12.6667H13.3333V7.33332Z" fill="#27AE60"/>
</svg>
