<svg width="16" height="16" viewBox="0 0 16 16" fill="none" xmlns="http://www.w3.org/2000/svg">
<path fill-rule="evenodd" clip-rule="evenodd" d="M15.9998 14.8689L14.8685 16.0001L11.4741 12.6064L12.6053 11.4744L15.9998 14.8689ZM6.39905 11.2004C3.75261 11.2004 1.59897 9.0476 1.59897 6.40036C1.59897 3.75391 3.75261 1.60028 6.39905 1.60028C9.0455 1.60028 11.1991 3.75391 11.1991 6.40036C11.1991 9.0476 9.0455 11.2004 6.39905 11.2004ZM6.40011 0C2.86565 0 0 2.86565 0 6.40011C0 9.93456 2.86565 12.8002 6.40011 12.8002C9.93456 12.8002 12.8002 9.93456 12.8002 6.40011C12.8002 2.86565 9.93456 0 6.40011 0Z" fill="#808080"/>
</svg>
