<svg width="16" height="16" viewBox="0 0 16 16" fill="none" xmlns="http://www.w3.org/2000/svg">
<path d="M9.33342 9.50132V10.8947C8.73003 10.6813 8.08427 10.6159 7.45035 10.7038C6.81644 10.7918 6.21288 11.0306 5.69037 11.4001C5.16786 11.7697 4.74164 12.2592 4.44752 12.8276C4.1534 13.396 3.99996 14.0267 4.00008 14.6667L2.66675 14.666C2.66654 13.8519 2.8527 13.0486 3.21095 12.3176C3.5692 11.5866 4.09004 10.9473 4.73356 10.4487C5.37708 9.95008 6.1262 9.60541 6.92352 9.44109C7.72084 9.27676 8.54519 9.29714 9.33342 9.50066V9.50132ZM8.00008 8.66666C5.79008 8.66666 4.00008 6.87666 4.00008 4.66666C4.00008 2.45666 5.79008 0.666656 8.00008 0.666656C10.2101 0.666656 12.0001 2.45666 12.0001 4.66666C12.0001 6.87666 10.2101 8.66666 8.00008 8.66666ZM8.00008 7.33332C9.47341 7.33332 10.6667 6.13999 10.6667 4.66666C10.6667 3.19332 9.47341 1.99999 8.00008 1.99999C6.52675 1.99999 5.33342 3.19332 5.33342 4.66666C5.33342 6.13999 6.52675 7.33332 8.00008 7.33332ZM12.0001 11.3333V9.33332H13.3334V11.3333H15.3334V12.6667H13.3334V14.6667H12.0001V12.6667H10.0001V11.3333H12.0001Z" fill="#9E9E9E"/>
</svg>
