<svg width="64" height="64" viewBox="0 0 64 64" fill="none" xmlns="http://www.w3.org/2000/svg">
<circle opacity="0.1" cx="32" cy="32" r="32" fill="#FF4500"/>
<path d="M34.6663 35.0027V37.7894C33.4596 37.3627 32.168 37.2318 30.9002 37.4078C29.6324 37.5837 28.4253 38.0612 27.3802 38.8003C26.3352 39.5394 25.4828 40.5185 24.8946 41.6553C24.3063 42.7921 23.9994 44.0534 23.9997 45.3334L21.333 45.332C21.3326 43.7039 21.7049 42.0972 22.4214 40.6352C23.1379 39.1732 24.1796 37.8946 25.4666 36.8974C26.7537 35.9002 28.2519 35.2109 29.8465 34.8822C31.4412 34.5536 33.0899 34.5943 34.6663 35.0014V35.0027ZM31.9997 33.3334C27.5797 33.3334 23.9997 29.7534 23.9997 25.3334C23.9997 20.9134 27.5797 17.3334 31.9997 17.3334C36.4197 17.3334 39.9997 20.9134 39.9997 25.3334C39.9997 29.7534 36.4197 33.3334 31.9997 33.3334ZM31.9997 30.6667C34.9463 30.6667 37.333 28.28 37.333 25.3334C37.333 22.3867 34.9463 20 31.9997 20C29.053 20 26.6663 22.3867 26.6663 25.3334C26.6663 28.28 29.053 30.6667 31.9997 30.6667ZM41.333 39.448L44.161 36.6187L46.0477 38.5054L43.2183 41.3334L46.0477 44.1614L44.161 46.048L41.333 43.2187L38.505 46.048L36.6183 44.1614L39.4477 41.3334L36.6183 38.5054L38.505 36.6187L41.333 39.448Z" fill="#FF4500"/>
</svg>
