<svg xmlns="http://www.w3.org/2000/svg" width="26" height="26" viewBox="0 0 26 26"><defs><style>.a{fill:none;}.b{fill:#fd8a25;}</style></defs><path class="a" d="M0,0H26V26H0Z"/><path class="b" d="M21,9.5l-5.243-.455L13.71,4.221a1.084,1.084,0,0,0-1.993,0L9.669,9.052,4.436,9.5a1.081,1.081,0,0,0-.618,1.9l3.976,3.445L6.6,19.951a1.081,1.081,0,0,0,1.614,1.17l4.5-2.708,4.5,2.719a1.081,1.081,0,0,0,1.614-1.17l-1.192-5.124,3.976-3.445A1.079,1.079,0,0,0,21,9.5Zm-8.288,6.89L8.64,18.846l1.083-4.637-3.6-3.12,4.745-.412,1.842-4.366,1.853,4.377,4.745.412-3.6,3.12L16.8,18.856Z" transform="translate(0.287 0.297)"/></svg>