<svg width="12" height="12" viewBox="0 0 12 12" fill="none" xmlns="http://www.w3.org/2000/svg">
<path d="M3.085 9C3.1883 8.70724 3.37987 8.45372 3.6333 8.2744C3.88673 8.09508 4.18954 7.99878 4.5 7.99878C4.81046 7.99878 5.11327 8.09508 5.3667 8.2744C5.62013 8.45372 5.8117 8.70724 5.915 9H11V10H5.915C5.8117 10.2928 5.62013 10.5463 5.3667 10.7256C5.11327 10.9049 4.81046 11.0012 4.5 11.0012C4.18954 11.0012 3.88673 10.9049 3.6333 10.7256C3.37987 10.5463 3.1883 10.2928 3.085 10H1V9H3.085ZM6.085 5.5C6.1883 5.20724 6.37987 4.95372 6.6333 4.7744C6.88673 4.59508 7.18954 4.49878 7.5 4.49878C7.81046 4.49878 8.11327 4.59508 8.3667 4.7744C8.62013 4.95372 8.8117 5.20724 8.915 5.5H11V6.5H8.915C8.8117 6.79277 8.62013 7.04629 8.3667 7.22561C8.11327 7.40493 7.81046 7.50123 7.5 7.50123C7.18954 7.50123 6.88673 7.40493 6.6333 7.22561C6.37987 7.04629 6.1883 6.79277 6.085 6.5H1V5.5H6.085ZM3.085 2C3.1883 1.70724 3.37987 1.45372 3.6333 1.2744C3.88673 1.09508 4.18954 0.998779 4.5 0.998779C4.81046 0.998779 5.11327 1.09508 5.3667 1.2744C5.62013 1.45372 5.8117 1.70724 5.915 2H11V3H5.915C5.8117 3.29277 5.62013 3.54629 5.3667 3.72561C5.11327 3.90493 4.81046 4.00123 4.5 4.00123C4.18954 4.00123 3.88673 3.90493 3.6333 3.72561C3.37987 3.54629 3.1883 3.29277 3.085 3H1V2H3.085ZM4.5 3C4.63261 3 4.75979 2.94733 4.85355 2.85356C4.94732 2.75979 5 2.63261 5 2.5C5 2.3674 4.94732 2.24022 4.85355 2.14645C4.75979 2.05268 4.63261 2 4.5 2C4.36739 2 4.24021 2.05268 4.14645 2.14645C4.05268 2.24022 4 2.3674 4 2.5C4 2.63261 4.05268 2.75979 4.14645 2.85356C4.24021 2.94733 4.36739 3 4.5 3ZM7.5 6.5C7.63261 6.5 7.75979 6.44733 7.85355 6.35356C7.94732 6.25979 8 6.13261 8 6C8 5.8674 7.94732 5.74022 7.85355 5.64645C7.75979 5.55268 7.63261 5.5 7.5 5.5C7.36739 5.5 7.24021 5.55268 7.14645 5.64645C7.05268 5.74022 7 5.8674 7 6C7 6.13261 7.05268 6.25979 7.14645 6.35356C7.24021 6.44733 7.36739 6.5 7.5 6.5ZM4.5 10C4.63261 10 4.75979 9.94733 4.85355 9.85356C4.94732 9.75979 5 9.63261 5 9.5C5 9.3674 4.94732 9.24022 4.85355 9.14645C4.75979 9.05268 4.63261 9 4.5 9C4.36739 9 4.24021 9.05268 4.14645 9.14645C4.05268 9.24022 4 9.3674 4 9.5C4 9.63261 4.05268 9.75979 4.14645 9.85356C4.24021 9.94733 4.36739 10 4.5 10Z" fill="#27AE60"/>
</svg>
