<svg width="40" height="40" viewBox="0 0 40 40" fill="none" xmlns="http://www.w3.org/2000/svg">
<path d="M11.6667 8.33332V3.33332C11.6667 2.8913 11.8423 2.46737 12.1548 2.15481C12.4674 1.84225 12.8913 1.66666 13.3333 1.66666H26.6667C27.1087 1.66666 27.5326 1.84225 27.8452 2.15481C28.1577 2.46737 28.3333 2.8913 28.3333 3.33332V8.33332H35C35.442 8.33332 35.8659 8.50892 36.1785 8.82148C36.4911 9.13404 36.6667 9.55796 36.6667 9.99999V33.3333C36.6667 33.7754 36.4911 34.1993 36.1785 34.5118C35.8659 34.8244 35.442 35 35 35H4.99999C4.55797 35 4.13404 34.8244 3.82148 34.5118C3.50892 34.1993 3.33333 33.7754 3.33333 33.3333V9.99999C3.33333 9.55796 3.50892 9.13404 3.82148 8.82148C4.13404 8.50892 4.55797 8.33332 4.99999 8.33332H11.6667ZM15 21.6667H6.66666V31.6667H33.3333V21.6667H25V26.6667H15V21.6667ZM33.3333 11.6667H6.66666V18.3333H15V15H25V18.3333H33.3333V11.6667ZM18.3333 18.3333V23.3333H21.6667V18.3333H18.3333ZM15 4.99999V8.33332H25V4.99999H15Z" fill="#2F80ED"/>
</svg>
