<svg width="16" height="16" viewBox="0 0 16 16" fill="none" xmlns="http://www.w3.org/2000/svg">
<path d="M3.33333 7.33335H8.66667V8.66668H3.33333V10.6667L0 8.00001L3.33333 5.33335V7.33335ZM2.66667 12H4.472C5.24179 12.6789 6.19112 13.1213 7.20608 13.274C8.22105 13.4267 9.25852 13.2833 10.194 12.861C11.1295 12.4387 11.9233 11.7555 12.48 10.8932C13.0368 10.031 13.333 9.0264 13.333 8.00001C13.333 6.97363 13.0368 5.96904 12.48 5.1068C11.9233 4.24457 11.1295 3.5613 10.194 3.13901C9.25852 2.71672 8.22105 2.57333 7.20608 2.72605C6.19112 2.87877 5.24179 3.32112 4.472 4.00001H2.66667C3.28711 3.17146 4.09222 2.49902 5.01805 2.03611C5.94387 1.57319 6.9649 1.33257 8 1.33335C11.682 1.33335 14.6667 4.31801 14.6667 8.00001C14.6667 11.682 11.682 14.6667 8 14.6667C6.9649 14.6675 5.94387 14.4268 5.01805 13.9639C4.09222 13.501 3.28711 12.8286 2.66667 12Z" fill="#9E9E9E"/>
</svg>
