<svg width="135" height="23" viewBox="0 0 135 23" fill="none" xmlns="http://www.w3.org/2000/svg">
<path d="M46.952 15H49.01V11.878H51.278C53.364 11.878 54.904 10.534 54.904 8.63C54.904 6.726 53.364 5.382 51.278 5.382H46.952V15ZM49.01 9.988V7.272H51.054C52.076 7.272 52.776 7.804 52.776 8.63C52.776 9.456 52.076 9.988 51.054 9.988H49.01ZM64.3282 15L61.9622 11.64C63.2782 11.178 64.1462 10.058 64.1462 8.63C64.1462 6.726 62.6062 5.382 60.5202 5.382H56.1942V15H58.2522V11.878H59.7782L61.9762 15H64.3282ZM58.2522 7.272H60.2962C61.3182 7.272 62.0182 7.804 62.0182 8.63C62.0182 9.456 61.3182 9.988 60.2962 9.988H58.2522V7.272ZM65.7105 15H67.7825V5.382H65.7105V15ZM69.786 15H71.844V9.008L74.826 14.44L77.794 9.008V15H79.866V5.382H77.794L74.826 10.814L71.844 5.382H69.786V15ZM89.2486 7.244V5.382H81.8426V15H89.2486V13.138H83.9146V11.024H88.7446V9.162H83.9146V7.244H89.2486Z" fill="#FF4500"/>
<path d="M93.6394 15H94.5494L97.3214 6.6L100.079 15H100.989L104.251 5.382H103.243L100.499 13.502L97.8114 5.382H96.8174L94.1434 13.502L91.3854 5.382H90.3774L93.6394 15ZM110.431 15.168C113.105 15.168 115.345 12.886 115.345 10.184C115.345 7.482 113.105 5.214 110.431 5.214C107.771 5.214 105.503 7.482 105.503 10.184C105.503 12.886 107.771 15.168 110.431 15.168ZM110.431 14.328C108.247 14.328 106.413 12.438 106.413 10.184C106.413 7.944 108.247 6.054 110.431 6.054C112.615 6.054 114.435 7.944 114.435 10.184C114.435 12.438 112.615 14.328 110.431 14.328ZM124.594 8.42C124.594 6.642 123.096 5.382 121.122 5.382H117.174V15H118.07V11.444H120.856L123.362 15H124.398L121.85 11.388C123.46 11.122 124.594 9.974 124.594 8.42ZM118.07 6.236H120.968C122.578 6.236 123.698 7.076 123.698 8.42C123.698 9.75 122.578 10.59 120.968 10.59H118.07V6.236ZM126.407 15H127.303V12.116L128.927 10.38L132.693 15H133.855L129.543 9.764L133.575 5.382H132.385L127.303 10.94V5.382H126.407V15Z" fill="#FD8A25"/>
<g clip-path="url(#clip0)">
<path d="M19.0778 23H7.3998L0 6.27281e-10H5.03186C6.96228 -2.26341e-05 8.84291 0.612518 10.403 1.74944C11.9631 2.88636 13.1222 4.48901 13.7134 6.32666L19.0778 23Z" fill="#FD8A25"/>
<path d="M7.3999 23H19.0779L26.4777 0H14.7984L7.3999 23Z" fill="#FF4500"/>
<path d="M33.8761 23H22.1981L14.7983 0H26.4776L33.8761 23Z" fill="#FD8A25"/>
<path d="M22.198 23H33.876L41.2758 0H36.2491C34.319 0.00118276 32.4389 0.614189 30.8791 1.75094C29.3192 2.88769 28.1599 4.48966 27.5676 6.32666L22.198 23Z" fill="#FF4500"/>
</g>
<defs>
<clipPath id="clip0">
<rect width="41.2759" height="23" fill="white"/>
</clipPath>
</defs>
</svg>
