<svg width="40" height="40" viewBox="0 0 40 40" fill="none" xmlns="http://www.w3.org/2000/svg">
<path d="M15.9167 19.1667C14.9221 19.1667 13.9683 18.7716 13.265 18.0683C12.5618 17.3651 12.1667 16.4112 12.1667 15.4167C12.1667 14.4221 12.5618 13.4683 13.265 12.765C13.9683 12.0617 14.9221 11.6667 15.9167 11.6667C16.9112 11.6667 17.8651 12.0617 18.5683 12.765C19.2716 13.4683 19.6667 14.4221 19.6667 15.4167C19.6667 16.4112 19.2716 17.3651 18.5683 18.0683C17.8651 18.7716 16.9112 19.1667 15.9167 19.1667ZM16.6667 32.9133V27.3333C16.6667 26.52 16.9067 25.7717 17.34 25.1033C15.8545 24.892 14.3411 24.9929 12.8968 25.3995C11.4524 25.8062 10.1088 26.5096 8.95168 27.465C10.7735 30.1609 13.5169 32.0989 16.6667 32.915V32.9133ZM7.42168 24.4333C9.85583 22.632 12.8051 21.6619 15.8333 21.6667C17.5717 21.6667 19.2383 21.98 20.7783 22.5533C22.2417 21.9817 23.9867 21.6667 25.8333 21.6667C28.6 21.6667 31.1417 22.3733 32.8433 23.5933C33.4059 21.5764 33.4856 19.4554 33.0759 17.402C32.6661 15.3486 31.7786 13.4206 30.485 11.7741C29.1915 10.1275 27.5284 8.80878 25.6303 7.92463C23.7323 7.04049 21.6527 6.61579 19.5599 6.68494C17.4672 6.75409 15.4202 7.31514 13.5846 8.32266C11.7491 9.33017 10.1766 10.7558 8.99461 12.4842C7.81259 14.2125 7.05424 16.1949 6.78097 18.2709C6.5077 20.3468 6.72719 22.458 7.42168 24.4333ZM31.465 26.81C30.81 25.9217 28.6183 25 25.8333 25C22.49 25 20 26.3283 20 27.3333V33.3333C22.3131 33.3346 24.5867 32.7338 26.5972 31.5901C28.6077 30.4463 30.2858 28.7989 31.4667 26.81H31.465ZM20 36.6667C10.795 36.6667 3.33334 29.205 3.33334 20C3.33334 10.795 10.795 3.33333 20 3.33333C29.205 3.33333 36.6667 10.795 36.6667 20C36.6667 29.205 29.205 36.6667 20 36.6667ZM25.8333 20.8333C24.9493 20.8333 24.1014 20.4821 23.4763 19.857C22.8512 19.2319 22.5 18.384 22.5 17.5C22.5 16.6159 22.8512 15.7681 23.4763 15.143C24.1014 14.5179 24.9493 14.1667 25.8333 14.1667C26.7174 14.1667 27.5652 14.5179 28.1904 15.143C28.8155 15.7681 29.1667 16.6159 29.1667 17.5C29.1667 18.384 28.8155 19.2319 28.1904 19.857C27.5652 20.4821 26.7174 20.8333 25.8333 20.8333Z" fill="#27AE60"/>
</svg>
