<svg width="40" height="40" viewBox="0 0 40 40" fill="none" xmlns="http://www.w3.org/2000/svg">
<path d="M20 36.6667C10.795 36.6667 3.33334 29.205 3.33334 20C3.33334 10.795 10.795 3.33333 20 3.33333C29.205 3.33333 36.6667 10.795 36.6667 20C36.6667 29.205 29.205 36.6667 20 36.6667ZM20 33.3333C23.5362 33.3333 26.9276 31.9286 29.4281 29.4281C31.9286 26.9276 33.3333 23.5362 33.3333 20C33.3333 16.4638 31.9286 13.0724 29.4281 10.5719C26.9276 8.07142 23.5362 6.66666 20 6.66666C16.4638 6.66666 13.0724 8.07142 10.5719 10.5719C8.07143 13.0724 6.66667 16.4638 6.66667 20C6.66667 23.5362 8.07143 26.9276 10.5719 29.4281C13.0724 31.9286 16.4638 33.3333 20 33.3333ZM11.6667 21.6667H26.6667V25H20V30L11.6667 21.6667ZM20 15V10L28.3333 18.3333H13.3333V15H20Z" fill="#5353D0"/>
</svg>
