<svg width="12" height="12" viewBox="0 0 12 12" fill="none" xmlns="http://www.w3.org/2000/svg">
<path d="M6 7V8C5.20435 8 4.44129 8.31607 3.87868 8.87868C3.31607 9.44129 3 10.2043 3 11H2C2 9.93913 2.42143 8.92172 3.17157 8.17157C3.92172 7.42143 4.93913 7 6 7ZM6 6.5C4.3425 6.5 3 5.1575 3 3.5C3 1.8425 4.3425 0.5 6 0.5C7.6575 0.5 9 1.8425 9 3.5C9 5.1575 7.6575 6.5 6 6.5ZM6 5.5C7.105 5.5 8 4.605 8 3.5C8 2.395 7.105 1.5 6 1.5C4.895 1.5 4 2.395 4 3.5C4 4.605 4.895 5.5 6 5.5ZM10.723 10.016L11.475 10.768L10.768 11.475L10.016 10.723C9.59667 10.9702 9.10156 11.0561 8.62348 10.9644C8.1454 10.8727 7.71717 10.6098 7.41907 10.225C7.12096 9.84012 6.97344 9.35977 7.00417 8.87394C7.03489 8.38812 7.24175 7.93018 7.58597 7.58597C7.93018 7.24175 8.38812 7.03489 8.87394 7.00417C9.35977 6.97344 9.84012 7.12096 10.225 7.41906C10.6098 7.71717 10.8727 8.1454 10.9644 8.62348C11.0561 9.10156 10.9702 9.59667 10.723 10.016ZM9 10C9.26522 10 9.51957 9.89464 9.70711 9.70711C9.89464 9.51957 10 9.26522 10 9C10 8.73478 9.89464 8.48043 9.70711 8.29289C9.51957 8.10536 9.26522 8 9 8C8.73478 8 8.48043 8.10536 8.29289 8.29289C8.10536 8.48043 8 8.73478 8 9C8 9.26522 8.10536 9.51957 8.29289 9.70711C8.48043 9.89464 8.73478 10 9 10Z" fill="#3B3B3B"/>
</svg>
